<svg width="36" height="33" viewBox="0 0 36 33" fill="none" xmlns="http://www.w3.org/2000/svg">
<path d="M0 24.8205C0 22.3719 2.3011 20.5753 4.67655 21.1691L15.5746 23.8937C17.167 24.2918 18.833 24.2918 20.4254 23.8937L31.3234 21.1691C33.6989 20.5753 36 22.3719 36 24.8205V24.8205C36 26.5267 34.8523 28.0194 33.2034 28.4578L20.5695 31.8168C18.8857 32.2645 17.1143 32.2645 15.4305 31.8168L2.79665 28.4578C1.14774 28.0194 0 26.5267 0 24.8205V24.8205Z" fill="#00DE28"/>
<path d="M0 14.8205C0 12.3719 2.3011 10.5753 4.67655 11.1691L15.5746 13.8937C17.167 14.2918 18.833 14.2918 20.4254 13.8937L31.3234 11.1691C33.6989 10.5753 36 12.3719 36 14.8205V14.8205C36 16.5267 34.8523 18.0194 33.2034 18.4578L20.5695 21.8168C18.8857 22.2645 17.1143 22.2645 15.4305 21.8168L2.79665 18.4578C1.14774 18.0194 0 16.5267 0 14.8205V14.8205Z" fill="#00DE28"/>
<path d="M0 4.82048C0 2.37192 2.3011 0.575274 4.67655 1.16914L15.5746 3.89366C17.167 4.29176 18.833 4.29176 20.4254 3.89366L31.3234 1.16914C33.6989 0.575275 36 2.37192 36 4.82048V4.82048C36 6.52668 34.8523 8.01944 33.2034 8.45784L20.5695 11.8168C18.8857 12.2645 17.1143 12.2645 15.4305 11.8168L2.79665 8.45784C1.14774 8.01944 0 6.52668 0 4.82048V4.82048Z" fill="#00DE28"/>
</svg>
